<svg width="320" height="320" viewBox="0 0 320 320" fill="none" xmlns="http://www.w3.org/2000/svg">
  <g opacity="0.7" stroke="#6FAF7D" stroke-width="4.5" stroke-linecap="round" stroke-linejoin="round">
    <g transform="translate(36 34) rotate(-10)">
      <circle cx="20" cy="16" r="9"/>
      <circle cx="44" cy="14" r="9"/>
      <circle cx="10" cy="39" r="10"/>
      <circle cx="54" cy="39" r="10"/>
      <path d="M18 56C24 44 40 44 46 56C51 66 45 78 32 78C19 78 13 66 18 56Z"/>
    </g>
    <g transform="translate(222 40) rotate(14)">
      <circle cx="20" cy="16" r="8"/>
      <circle cx="42" cy="14" r="8"/>
      <circle cx="10" cy="36" r="9"/>
      <circle cx="52" cy="36" r="9"/>
      <path d="M18 52C24 42 38 42 44 52C48 61 43 72 31 72C19 72 14 61 18 52Z"/>
    </g>
    <g transform="translate(62 188) rotate(12)">
      <circle cx="20" cy="16" r="9"/>
      <circle cx="44" cy="14" r="9"/>
      <circle cx="10" cy="39" r="10"/>
      <circle cx="54" cy="39" r="10"/>
      <path d="M18 56C24 44 40 44 46 56C51 66 45 78 32 78C19 78 13 66 18 56Z"/>
    </g>
    <g transform="translate(214 204) rotate(-8)">
      <circle cx="20" cy="16" r="8"/>
      <circle cx="42" cy="14" r="8"/>
      <circle cx="10" cy="36" r="9"/>
      <circle cx="52" cy="36" r="9"/>
      <path d="M18 52C24 42 38 42 44 52C48 61 43 72 31 72C19 72 14 61 18 52Z"/>
    </g>
    <g transform="translate(122 102) rotate(-18)">
      <circle cx="18" cy="20" r="12"/>
      <circle cx="72" cy="20" r="12"/>
      <rect x="28" y="12" width="34" height="16" rx="8"/>
      <rect x="28" y="42" width="34" height="16" rx="8"/>
      <circle cx="18" cy="50" r="12"/>
      <circle cx="72" cy="50" r="12"/>
    </g>
  </g>
</svg>
